<svg width="190" height="190" viewBox="0 0 190 190" fill="none" xmlns="http://www.w3.org/2000/svg">
<path d="M172.188 83.4813V53.9323C172.177 47.4267 169.588 41.1905 164.988 36.5903C160.388 31.9901 154.151 29.4011 147.646 29.3906H42.3542C35.8613 29.4424 29.6491 32.0446 25.0578 36.6359C20.4665 41.2272 17.8642 47.4394 17.8125 53.9323V84.4867" stroke="black" stroke-opacity="0.5" stroke-width="2" stroke-linecap="round" stroke-linejoin="round"/>
<path d="M172.187 74.5924C172.177 68.0868 169.588 61.8506 164.988 57.2504C160.388 52.6502 154.151 50.0612 147.646 50.0508H42.3542C35.8485 50.0612 29.6123 52.6502 25.0121 57.2504C20.412 61.8506 17.823 68.0868 17.8125 74.5924" stroke="black" stroke-opacity="0.5" stroke-width="2" stroke-linecap="round" stroke-linejoin="round"/>
<path d="M170.023 85.0576C168.079 80.7495 164.934 77.0931 160.966 74.5264C156.997 71.9598 152.373 70.5916 147.646 70.5859H42.3546C37.6406 70.5922 33.0278 71.9538 29.0661 74.5084C25.1043 77.063 21.9606 80.7029 20.0098 84.9943" stroke="black" stroke-opacity="0.5" stroke-width="2" stroke-linecap="round" stroke-linejoin="round"/>
<path d="M115.971 107.27L17.8125 84.4819V136.067C17.823 142.573 20.412 148.809 25.0121 153.409C29.6123 158.009 35.8485 160.598 42.3542 160.609H147.65C154.155 160.598 160.392 158.009 164.992 153.409C169.592 148.809 172.181 142.573 172.191 136.067V83.4805L148.778 100.509C144.112 103.918 138.768 106.286 133.109 107.452C127.449 108.619 121.605 108.556 115.971 107.27Z" stroke="black" stroke-opacity="0.5" stroke-width="2" stroke-linecap="round" stroke-linejoin="round"/>
</svg>
